<mxfile modified="2023-10-13T09:47:46.677Z" host="app.diagrams.net" agent="Mozilla/5.0 (Macintosh; Intel Mac OS X 10_15_7) AppleWebKit/537.36 (KHTML, like Gecko) Chrome/117.0.0.0 Safari/537.36" etag="Zu8LY1wuT12_rdo-Ny4p" version="21.8.0" type="github" pages="3">
  <diagram id="l8hXMBHkgcEJcSW0mbfh" name="Page-1">
    <mxGraphModel dx="1102" dy="603" grid="1" gridSize="10" guides="1" tooltips="1" connect="1" arrows="1" fold="1" page="1" pageScale="1" pageWidth="1169" pageHeight="827" math="0" shadow="0">
      <root>
        <mxCell id="0" />
        <mxCell id="1" parent="0" />
        <mxCell id="wgIXfA-ieKpfbW2CdZ0P-29" value="" style="rounded=1;whiteSpace=wrap;html=1;" vertex="1" parent="1">
          <mxGeometry x="60" y="50" width="1090" height="360" as="geometry" />
        </mxCell>
        <mxCell id="wgIXfA-ieKpfbW2CdZ0P-30" style="edgeStyle=orthogonalEdgeStyle;rounded=0;orthogonalLoop=1;jettySize=auto;html=1;entryX=0;entryY=0.5;entryDx=0;entryDy=0;" edge="1" parent="1" source="wgIXfA-ieKpfbW2CdZ0P-31" target="wgIXfA-ieKpfbW2CdZ0P-34">
          <mxGeometry relative="1" as="geometry" />
        </mxCell>
        <mxCell id="wgIXfA-ieKpfbW2CdZ0P-56" value="X" style="edgeLabel;html=1;align=center;verticalAlign=middle;resizable=0;points=[];" vertex="1" connectable="0" parent="wgIXfA-ieKpfbW2CdZ0P-30">
          <mxGeometry x="-0.0533" y="-1" relative="1" as="geometry">
            <mxPoint as="offset" />
          </mxGeometry>
        </mxCell>
        <mxCell id="wgIXfA-ieKpfbW2CdZ0P-31" value="Master Node Side Router&lt;br&gt;(183.xxx.xxx.xxx)" style="image;html=1;image=img/lib/clip_art/networking/Wireless_Router_N_128x128.png" vertex="1" parent="1">
          <mxGeometry x="403" y="154.75" width="80" height="80" as="geometry" />
        </mxCell>
        <mxCell id="wgIXfA-ieKpfbW2CdZ0P-47" value="" style="edgeStyle=orthogonalEdgeStyle;rounded=0;orthogonalLoop=1;jettySize=auto;html=1;" edge="1" parent="1" source="wgIXfA-ieKpfbW2CdZ0P-32" target="wgIXfA-ieKpfbW2CdZ0P-34">
          <mxGeometry relative="1" as="geometry" />
        </mxCell>
        <mxCell id="wgIXfA-ieKpfbW2CdZ0P-53" value="X" style="edgeLabel;html=1;align=center;verticalAlign=middle;resizable=0;points=[];" vertex="1" connectable="0" parent="wgIXfA-ieKpfbW2CdZ0P-47">
          <mxGeometry x="0.0455" y="1" relative="1" as="geometry">
            <mxPoint as="offset" />
          </mxGeometry>
        </mxCell>
        <mxCell id="2psMZHm7TkgQ9QdM2TDM-6" style="edgeStyle=orthogonalEdgeStyle;rounded=0;orthogonalLoop=1;jettySize=auto;html=1;startArrow=classic;startFill=1;endArrow=none;endFill=0;" edge="1" parent="1" source="wgIXfA-ieKpfbW2CdZ0P-32" target="2psMZHm7TkgQ9QdM2TDM-2">
          <mxGeometry relative="1" as="geometry" />
        </mxCell>
        <mxCell id="wgIXfA-ieKpfbW2CdZ0P-32" value="Worker Node Side&amp;nbsp;Router&lt;br&gt;(49.xxx.xxx.xxx)" style="image;html=1;image=img/lib/clip_art/networking/Wireless_Router_N_128x128.png" vertex="1" parent="1">
          <mxGeometry x="723" y="154.75" width="80" height="80" as="geometry" />
        </mxCell>
        <mxCell id="wgIXfA-ieKpfbW2CdZ0P-34" value="Internet" style="image;aspect=fixed;perimeter=ellipsePerimeter;html=1;align=center;shadow=0;dashed=0;spacingTop=3;image=img/lib/active_directory/internet_cloud.svg;" vertex="1" parent="1">
          <mxGeometry x="543" y="159.5" width="111.9" height="70.5" as="geometry" />
        </mxCell>
        <mxCell id="wgIXfA-ieKpfbW2CdZ0P-45" style="edgeStyle=orthogonalEdgeStyle;rounded=0;orthogonalLoop=1;jettySize=auto;html=1;entryX=0;entryY=0.5;entryDx=0;entryDy=0;" edge="1" parent="1" source="wgIXfA-ieKpfbW2CdZ0P-35" target="wgIXfA-ieKpfbW2CdZ0P-31">
          <mxGeometry relative="1" as="geometry" />
        </mxCell>
        <mxCell id="wgIXfA-ieKpfbW2CdZ0P-35" value="Master Node&lt;br&gt;(192.168.0.10)" style="image;points=[];aspect=fixed;html=1;align=center;shadow=0;dashed=0;image=img/lib/allied_telesis/computer_and_terminals/Personal_Computer_with_Server.svg;" vertex="1" parent="1">
          <mxGeometry x="242" y="163.55" width="62.400000000000006" height="62.400000000000006" as="geometry" />
        </mxCell>
        <mxCell id="2psMZHm7TkgQ9QdM2TDM-4" style="edgeStyle=orthogonalEdgeStyle;rounded=0;orthogonalLoop=1;jettySize=auto;html=1;entryX=1;entryY=0.5;entryDx=0;entryDy=0;" edge="1" parent="1" source="wgIXfA-ieKpfbW2CdZ0P-36" target="2psMZHm7TkgQ9QdM2TDM-2">
          <mxGeometry relative="1" as="geometry" />
        </mxCell>
        <mxCell id="wgIXfA-ieKpfbW2CdZ0P-36" value="Worker Node&lt;br&gt;(192.168.200.150)" style="image;points=[];aspect=fixed;html=1;align=center;shadow=0;dashed=0;image=img/lib/allied_telesis/computer_and_terminals/Personal_Computer_with_Server.svg;" vertex="1" parent="1">
          <mxGeometry x="910" y="163.55" width="62.400000000000006" height="62.400000000000006" as="geometry" />
        </mxCell>
        <mxCell id="wgIXfA-ieKpfbW2CdZ0P-42" value="port: 10250" style="sketch=0;html=1;dashed=0;whitespace=wrap;fillColor=#2875E2;strokeColor=#ffffff;points=[[0.005,0.63,0],[0.1,0.2,0],[0.9,0.2,0],[0.5,0,0],[0.995,0.63,0],[0.72,0.99,0],[0.5,1,0],[0.28,0.99,0]];verticalLabelPosition=bottom;align=center;verticalAlign=top;shape=mxgraph.kubernetes.icon;prIcon=kubelet" vertex="1" parent="1">
          <mxGeometry x="1090" y="165" width="50" height="48" as="geometry" />
        </mxCell>
        <mxCell id="wgIXfA-ieKpfbW2CdZ0P-44" value="&lt;font style=&quot;font-size: 15px;&quot;&gt;&lt;b&gt;Problem: Master Node and Worker Node attempt to communicate using private IP&lt;/b&gt;&lt;/font&gt;" style="text;html=1;strokeColor=none;fillColor=none;align=center;verticalAlign=middle;whiteSpace=wrap;rounded=0;" vertex="1" parent="1">
          <mxGeometry x="395" y="80" width="430" height="30" as="geometry" />
        </mxCell>
        <mxCell id="wgIXfA-ieKpfbW2CdZ0P-46" value="Request: 192.168.200.150:10250" style="text;html=1;strokeColor=none;fillColor=none;align=center;verticalAlign=middle;whiteSpace=wrap;rounded=0;" vertex="1" parent="1">
          <mxGeometry x="90" y="133.55" width="200" height="30" as="geometry" />
        </mxCell>
        <mxCell id="wgIXfA-ieKpfbW2CdZ0P-49" style="edgeStyle=orthogonalEdgeStyle;rounded=0;orthogonalLoop=1;jettySize=auto;html=1;exitX=0.005;exitY=0.63;exitDx=0;exitDy=0;exitPerimeter=0;entryX=0.952;entryY=0.514;entryDx=0;entryDy=0;entryPerimeter=0;" edge="1" parent="1" source="wgIXfA-ieKpfbW2CdZ0P-42" target="wgIXfA-ieKpfbW2CdZ0P-36">
          <mxGeometry relative="1" as="geometry" />
        </mxCell>
        <mxCell id="wgIXfA-ieKpfbW2CdZ0P-50" value="Request: 10.96.0.1:443" style="text;html=1;strokeColor=none;fillColor=none;align=center;verticalAlign=middle;whiteSpace=wrap;rounded=0;" vertex="1" parent="1">
          <mxGeometry x="930" y="140.75" width="200" height="30" as="geometry" />
        </mxCell>
        <mxCell id="wgIXfA-ieKpfbW2CdZ0P-52" style="edgeStyle=orthogonalEdgeStyle;rounded=0;orthogonalLoop=1;jettySize=auto;html=1;" edge="1" parent="1" source="wgIXfA-ieKpfbW2CdZ0P-51" target="wgIXfA-ieKpfbW2CdZ0P-35">
          <mxGeometry relative="1" as="geometry" />
        </mxCell>
        <mxCell id="wgIXfA-ieKpfbW2CdZ0P-51" value="port: 6443" style="sketch=0;html=1;dashed=0;whitespace=wrap;fillColor=#2875E2;strokeColor=#ffffff;points=[[0.005,0.63,0],[0.1,0.2,0],[0.9,0.2,0],[0.5,0,0],[0.995,0.63,0],[0.72,0.99,0],[0.5,1,0],[0.28,0.99,0]];verticalLabelPosition=bottom;align=center;verticalAlign=top;shape=mxgraph.kubernetes.icon;prIcon=api" vertex="1" parent="1">
          <mxGeometry x="70" y="170.75" width="50" height="48" as="geometry" />
        </mxCell>
        <mxCell id="2psMZHm7TkgQ9QdM2TDM-1" value="IPtable" style="swimlane;fontStyle=0;childLayout=stackLayout;horizontal=1;startSize=30;horizontalStack=0;resizeParent=1;resizeParentMax=0;resizeLast=0;collapsible=1;marginBottom=0;whiteSpace=wrap;html=1;" vertex="1" parent="1">
          <mxGeometry x="803" y="300" width="117" height="80" as="geometry" />
        </mxCell>
        <mxCell id="2psMZHm7TkgQ9QdM2TDM-2" value="10.96.0.1:443 -&amp;gt;&lt;br&gt;192.168.0.10:6443&lt;br&gt;(DNAT)" style="text;strokeColor=none;fillColor=none;align=left;verticalAlign=middle;spacingLeft=4;spacingRight=4;overflow=hidden;points=[[0,0.5],[1,0.5]];portConstraint=eastwest;rotatable=0;whiteSpace=wrap;html=1;" vertex="1" parent="2psMZHm7TkgQ9QdM2TDM-1">
          <mxGeometry y="30" width="117" height="50" as="geometry" />
        </mxCell>
        <mxCell id="2psMZHm7TkgQ9QdM2TDM-7" value="can not find 192.168.200.150" style="text;html=1;strokeColor=none;fillColor=none;align=center;verticalAlign=middle;whiteSpace=wrap;rounded=0;" vertex="1" parent="1">
          <mxGeometry x="420" y="129.5" width="200" height="30" as="geometry" />
        </mxCell>
        <mxCell id="2psMZHm7TkgQ9QdM2TDM-8" value="can not find 192.168.0.10" style="text;html=1;strokeColor=none;fillColor=none;align=center;verticalAlign=middle;whiteSpace=wrap;rounded=0;" vertex="1" parent="1">
          <mxGeometry x="610" y="129.5" width="200" height="30" as="geometry" />
        </mxCell>
      </root>
    </mxGraphModel>
  </diagram>
  <diagram id="bDJf7mAOlMnOuui7FZKs" name="페이지-2">
    <mxGraphModel dx="1102" dy="603" grid="1" gridSize="10" guides="1" tooltips="1" connect="1" arrows="1" fold="1" page="1" pageScale="1" pageWidth="827" pageHeight="1169" math="0" shadow="0">
      <root>
        <mxCell id="0" />
        <mxCell id="1" parent="0" />
        <mxCell id="vGp7Uqdzsy3plGdvNEEC-1" value="" style="rounded=1;whiteSpace=wrap;html=1;" vertex="1" parent="1">
          <mxGeometry x="50" y="50" width="1090" height="340" as="geometry" />
        </mxCell>
        <mxCell id="vGp7Uqdzsy3plGdvNEEC-2" style="edgeStyle=orthogonalEdgeStyle;rounded=0;orthogonalLoop=1;jettySize=auto;html=1;entryX=0;entryY=0.5;entryDx=0;entryDy=0;" edge="1" parent="1" source="vGp7Uqdzsy3plGdvNEEC-5" target="vGp7Uqdzsy3plGdvNEEC-8">
          <mxGeometry relative="1" as="geometry" />
        </mxCell>
        <mxCell id="vGp7Uqdzsy3plGdvNEEC-3" style="edgeStyle=orthogonalEdgeStyle;rounded=0;orthogonalLoop=1;jettySize=auto;html=1;" edge="1" parent="1" source="vGp7Uqdzsy3plGdvNEEC-6" target="vGp7Uqdzsy3plGdvNEEC-11">
          <mxGeometry relative="1" as="geometry" />
        </mxCell>
        <mxCell id="vGp7Uqdzsy3plGdvNEEC-4" style="edgeStyle=orthogonalEdgeStyle;rounded=0;orthogonalLoop=1;jettySize=auto;html=1;exitX=0.5;exitY=1;exitDx=0;exitDy=0;entryX=1;entryY=0.5;entryDx=0;entryDy=0;startArrow=classic;startFill=1;endArrow=none;endFill=0;" edge="1" parent="1" source="vGp7Uqdzsy3plGdvNEEC-5" target="vGp7Uqdzsy3plGdvNEEC-19">
          <mxGeometry relative="1" as="geometry" />
        </mxCell>
        <mxCell id="vGp7Uqdzsy3plGdvNEEC-5" value="Master Node Side Router&lt;br&gt;(183.xxx.xxx.xxx)" style="image;html=1;image=img/lib/clip_art/networking/Wireless_Router_N_128x128.png" vertex="1" parent="1">
          <mxGeometry x="388" y="154.75" width="80" height="80" as="geometry" />
        </mxCell>
        <mxCell id="vGp7Uqdzsy3plGdvNEEC-6" value="Worker Node Side&amp;nbsp;Router&lt;br&gt;(49.xxx.xxx.xxx)" style="image;html=1;image=img/lib/clip_art/networking/Wireless_Router_N_128x128.png" vertex="1" parent="1">
          <mxGeometry x="713" y="154.75" width="80" height="80" as="geometry" />
        </mxCell>
        <mxCell id="vGp7Uqdzsy3plGdvNEEC-7" style="edgeStyle=orthogonalEdgeStyle;rounded=0;orthogonalLoop=1;jettySize=auto;html=1;" edge="1" parent="1" source="vGp7Uqdzsy3plGdvNEEC-8" target="vGp7Uqdzsy3plGdvNEEC-6">
          <mxGeometry relative="1" as="geometry" />
        </mxCell>
        <mxCell id="vGp7Uqdzsy3plGdvNEEC-8" value="Internet" style="image;aspect=fixed;perimeter=ellipsePerimeter;html=1;align=center;shadow=0;dashed=0;spacingTop=3;image=img/lib/active_directory/internet_cloud.svg;" vertex="1" parent="1">
          <mxGeometry x="533" y="159.5" width="111.9" height="70.5" as="geometry" />
        </mxCell>
        <mxCell id="vGp7Uqdzsy3plGdvNEEC-9" style="edgeStyle=orthogonalEdgeStyle;rounded=0;orthogonalLoop=1;jettySize=auto;html=1;entryX=0;entryY=0.5;entryDx=0;entryDy=0;" edge="1" parent="1" source="vGp7Uqdzsy3plGdvNEEC-10" target="vGp7Uqdzsy3plGdvNEEC-19">
          <mxGeometry relative="1" as="geometry" />
        </mxCell>
        <mxCell id="vGp7Uqdzsy3plGdvNEEC-10" value="Master Node&lt;br&gt;(192.168.0.10)" style="image;points=[];aspect=fixed;html=1;align=center;shadow=0;dashed=0;image=img/lib/allied_telesis/computer_and_terminals/Personal_Computer_with_Server.svg;" vertex="1" parent="1">
          <mxGeometry x="232" y="163.55" width="62.400000000000006" height="62.400000000000006" as="geometry" />
        </mxCell>
        <mxCell id="vGp7Uqdzsy3plGdvNEEC-11" value="Worker Node&lt;br&gt;(192.168.200.150)" style="image;points=[];aspect=fixed;html=1;align=center;shadow=0;dashed=0;image=img/lib/allied_telesis/computer_and_terminals/Personal_Computer_with_Server.svg;" vertex="1" parent="1">
          <mxGeometry x="910" y="163.55" width="62.400000000000006" height="62.400000000000006" as="geometry" />
        </mxCell>
        <mxCell id="vGp7Uqdzsy3plGdvNEEC-12" value="port: 10250" style="sketch=0;html=1;dashed=0;whitespace=wrap;fillColor=#2875E2;strokeColor=#ffffff;points=[[0.005,0.63,0],[0.1,0.2,0],[0.9,0.2,0],[0.5,0,0],[0.995,0.63,0],[0.72,0.99,0],[0.5,1,0],[0.28,0.99,0]];verticalLabelPosition=bottom;align=center;verticalAlign=top;shape=mxgraph.kubernetes.icon;prIcon=kubelet" vertex="1" parent="1">
          <mxGeometry x="1080" y="164" width="50" height="48" as="geometry" />
        </mxCell>
        <mxCell id="vGp7Uqdzsy3plGdvNEEC-13" value="&lt;b style=&quot;border-color: var(--border-color); font-size: 15px;&quot;&gt;Solution 1: Master Node request to Worker Node&#39;s kubelet&lt;/b&gt;" style="text;html=1;strokeColor=none;fillColor=none;align=center;verticalAlign=middle;whiteSpace=wrap;rounded=0;" vertex="1" parent="1">
          <mxGeometry x="385" y="80" width="430" height="30" as="geometry" />
        </mxCell>
        <mxCell id="vGp7Uqdzsy3plGdvNEEC-14" value="Request: 192.168.200.150:10250" style="text;html=1;strokeColor=none;fillColor=none;align=center;verticalAlign=middle;whiteSpace=wrap;rounded=0;" vertex="1" parent="1">
          <mxGeometry x="80" y="133.55" width="200" height="30" as="geometry" />
        </mxCell>
        <mxCell id="vGp7Uqdzsy3plGdvNEEC-15" style="edgeStyle=orthogonalEdgeStyle;rounded=0;orthogonalLoop=1;jettySize=auto;html=1;" edge="1" parent="1" source="vGp7Uqdzsy3plGdvNEEC-16" target="vGp7Uqdzsy3plGdvNEEC-10">
          <mxGeometry relative="1" as="geometry" />
        </mxCell>
        <mxCell id="vGp7Uqdzsy3plGdvNEEC-16" value="port: 6443" style="sketch=0;html=1;dashed=0;whitespace=wrap;fillColor=#2875E2;strokeColor=#ffffff;points=[[0.005,0.63,0],[0.1,0.2,0],[0.9,0.2,0],[0.5,0,0],[0.995,0.63,0],[0.72,0.99,0],[0.5,1,0],[0.28,0.99,0]];verticalLabelPosition=bottom;align=center;verticalAlign=top;shape=mxgraph.kubernetes.icon;prIcon=api" vertex="1" parent="1">
          <mxGeometry x="60" y="170.75" width="50" height="48" as="geometry" />
        </mxCell>
        <mxCell id="vGp7Uqdzsy3plGdvNEEC-17" style="edgeStyle=orthogonalEdgeStyle;rounded=0;orthogonalLoop=1;jettySize=auto;html=1;entryX=0.005;entryY=0.63;entryDx=0;entryDy=0;entryPerimeter=0;" edge="1" parent="1" source="vGp7Uqdzsy3plGdvNEEC-11" target="vGp7Uqdzsy3plGdvNEEC-12">
          <mxGeometry relative="1" as="geometry" />
        </mxCell>
        <mxCell id="vGp7Uqdzsy3plGdvNEEC-18" value="IPtable" style="swimlane;fontStyle=0;childLayout=stackLayout;horizontal=1;startSize=30;horizontalStack=0;resizeParent=1;resizeParentMax=0;resizeLast=0;collapsible=1;marginBottom=0;whiteSpace=wrap;html=1;" vertex="1" parent="1">
          <mxGeometry x="283" y="300" width="117" height="80" as="geometry" />
        </mxCell>
        <mxCell id="vGp7Uqdzsy3plGdvNEEC-19" value="192.168.200.150 -&amp;gt; 49.xxx.xxx.xxx (DNAT)" style="text;strokeColor=none;fillColor=none;align=left;verticalAlign=middle;spacingLeft=4;spacingRight=4;overflow=hidden;points=[[0,0.5],[1,0.5]];portConstraint=eastwest;rotatable=0;whiteSpace=wrap;html=1;" vertex="1" parent="vGp7Uqdzsy3plGdvNEEC-18">
          <mxGeometry y="30" width="117" height="50" as="geometry" />
        </mxCell>
      </root>
    </mxGraphModel>
  </diagram>
  <diagram id="XXlLwiS3AE0hUTuIg0c2" name="페이지-3">
    <mxGraphModel dx="1102" dy="603" grid="1" gridSize="10" guides="1" tooltips="1" connect="1" arrows="1" fold="1" page="1" pageScale="1" pageWidth="827" pageHeight="1169" math="0" shadow="0">
      <root>
        <mxCell id="0" />
        <mxCell id="1" parent="0" />
        <mxCell id="2-4ODuEUMwHd3Rg0Ddvz-1" value="" style="rounded=1;whiteSpace=wrap;html=1;" vertex="1" parent="1">
          <mxGeometry x="50" y="50" width="1090" height="340" as="geometry" />
        </mxCell>
        <mxCell id="2-4ODuEUMwHd3Rg0Ddvz-5" value="Master Node Side Router&lt;br&gt;(183.xxx.xxx.xxx)" style="image;html=1;image=img/lib/clip_art/networking/Wireless_Router_N_128x128.png" vertex="1" parent="1">
          <mxGeometry x="388" y="154.75" width="80" height="80" as="geometry" />
        </mxCell>
        <mxCell id="2-4ODuEUMwHd3Rg0Ddvz-6" value="Worker Node Side&amp;nbsp;Router&lt;br&gt;(49.xxx.xxx.xxx)" style="image;html=1;image=img/lib/clip_art/networking/Wireless_Router_N_128x128.png" vertex="1" parent="1">
          <mxGeometry x="713" y="154.75" width="80" height="80" as="geometry" />
        </mxCell>
        <mxCell id="2-4ODuEUMwHd3Rg0Ddvz-8" value="Internet" style="image;aspect=fixed;perimeter=ellipsePerimeter;html=1;align=center;shadow=0;dashed=0;spacingTop=3;image=img/lib/active_directory/internet_cloud.svg;" vertex="1" parent="1">
          <mxGeometry x="533" y="159.5" width="111.9" height="70.5" as="geometry" />
        </mxCell>
        <mxCell id="2-4ODuEUMwHd3Rg0Ddvz-10" value="Master Node&lt;br&gt;(192.168.0.10)" style="image;points=[];aspect=fixed;html=1;align=center;shadow=0;dashed=0;image=img/lib/allied_telesis/computer_and_terminals/Personal_Computer_with_Server.svg;" vertex="1" parent="1">
          <mxGeometry x="232" y="163.55" width="62.400000000000006" height="62.400000000000006" as="geometry" />
        </mxCell>
        <mxCell id="2-4ODuEUMwHd3Rg0Ddvz-11" value="Worker Node&lt;br&gt;(192.168.200.150)" style="image;points=[];aspect=fixed;html=1;align=center;shadow=0;dashed=0;image=img/lib/allied_telesis/computer_and_terminals/Personal_Computer_with_Server.svg;" vertex="1" parent="1">
          <mxGeometry x="880" y="163.55" width="62.400000000000006" height="62.400000000000006" as="geometry" />
        </mxCell>
        <mxCell id="2-4ODuEUMwHd3Rg0Ddvz-12" value="port: 10250" style="sketch=0;html=1;dashed=0;whitespace=wrap;fillColor=#2875E2;strokeColor=#ffffff;points=[[0.005,0.63,0],[0.1,0.2,0],[0.9,0.2,0],[0.5,0,0],[0.995,0.63,0],[0.72,0.99,0],[0.5,1,0],[0.28,0.99,0]];verticalLabelPosition=bottom;align=center;verticalAlign=top;shape=mxgraph.kubernetes.icon;prIcon=kubelet" vertex="1" parent="1">
          <mxGeometry x="1080" y="164" width="50" height="48" as="geometry" />
        </mxCell>
        <mxCell id="2-4ODuEUMwHd3Rg0Ddvz-13" value="&lt;b style=&quot;border-color: var(--border-color); font-size: 15px;&quot;&gt;Solution 2: Worker Node request to Master Node&#39;s kubelet&lt;/b&gt;" style="text;html=1;strokeColor=none;fillColor=none;align=center;verticalAlign=middle;whiteSpace=wrap;rounded=0;" vertex="1" parent="1">
          <mxGeometry x="385" y="80" width="430" height="30" as="geometry" />
        </mxCell>
        <mxCell id="2-4ODuEUMwHd3Rg0Ddvz-14" value="Request: 10.96.0.1:443" style="text;html=1;strokeColor=none;fillColor=none;align=center;verticalAlign=middle;whiteSpace=wrap;rounded=0;" vertex="1" parent="1">
          <mxGeometry x="910" y="133.55" width="200" height="30" as="geometry" />
        </mxCell>
        <mxCell id="2-4ODuEUMwHd3Rg0Ddvz-16" value="port: 6443" style="sketch=0;html=1;dashed=0;whitespace=wrap;fillColor=#2875E2;strokeColor=#ffffff;points=[[0.005,0.63,0],[0.1,0.2,0],[0.9,0.2,0],[0.5,0,0],[0.995,0.63,0],[0.72,0.99,0],[0.5,1,0],[0.28,0.99,0]];verticalLabelPosition=bottom;align=center;verticalAlign=top;shape=mxgraph.kubernetes.icon;prIcon=api" vertex="1" parent="1">
          <mxGeometry x="60" y="170.75" width="50" height="48" as="geometry" />
        </mxCell>
        <mxCell id="2-4ODuEUMwHd3Rg0Ddvz-18" value="IPtable" style="swimlane;fontStyle=0;childLayout=stackLayout;horizontal=1;startSize=30;horizontalStack=0;resizeParent=1;resizeParentMax=0;resizeLast=0;collapsible=1;marginBottom=0;whiteSpace=wrap;html=1;" vertex="1" parent="1">
          <mxGeometry x="793" y="290" width="117" height="80" as="geometry" />
        </mxCell>
        <mxCell id="2-4ODuEUMwHd3Rg0Ddvz-19" value="192.168.200.150 -&amp;gt; 49.xxx.xxx.xxx (DNAT)" style="text;strokeColor=none;fillColor=none;align=left;verticalAlign=middle;spacingLeft=4;spacingRight=4;overflow=hidden;points=[[0,0.5],[1,0.5]];portConstraint=eastwest;rotatable=0;whiteSpace=wrap;html=1;" vertex="1" parent="2-4ODuEUMwHd3Rg0Ddvz-18">
          <mxGeometry y="30" width="117" height="50" as="geometry" />
        </mxCell>
      </root>
    </mxGraphModel>
  </diagram>
</mxfile>
